<?xml version="1.0" encoding="UTF-8"?>
<svg width="300px" height="90px" viewBox="0 0 300 90" version="1.1" xmlns="http://www.w3.org/2000/svg" xmlns:xlink="http://www.w3.org/1999/xlink">
    <title>header-logo-2020</title>
    <defs>
        <path d="M29.0134263,40.2408491 C28.4418692,39.3580108 28.1305881,38.4436694 28.0330783,37.4550705 C27.6677918,33.7737024 30.719847,29.9310681 36.4159166,28.7984548 C36.5126763,20.0113261 37.4607711,14.4810231 38.6953945,10.960171 L37.7390489,11.0809331 C31.3506601,11.8925143 24.5610111,9.98057306 15.5653615,11.1229373 C7.22152715,12.1820432 3.68717372,19.5867837 4.3059856,25.8274077 C4.8220372,31.0359286 8.21087609,35.470372 14.1642214,34.7150465 C20.1610711,33.9537204 21.8457396,29.1937444 21.3379388,24.0744824 C21.2576808,23.2666517 21.1346685,22.4640714 20.9629013,21.6209871 L24.8025353,20.4066157 C24.9788029,21.2939544 25.1543204,22.1805431 25.2435794,23.0783828 C25.8938944,29.6332883 23.4261476,35.8116562 14.429748,36.9532703 C5.65162016,38.0678818 0.734878488,32.4175668 0.0755625563,25.7726523 C-0.681263126,18.139889 4.23547855,9.15024002 15.3605911,7.73784878 C24.7477798,6.5459796 32.5830333,9.23424842 38.0150765,8.54492949 C38.7539004,8.45117012 39.3577108,8.32890789 39.9180168,8.21264626 C41.229898,5.90916592 42.6017852,5.09908491 43.5356286,4.75255026 L45.2570507,6.58048305 C44.6427393,7.93136814 43.7411491,9.0459796 42.1524902,9.88381338 C41.4976748,12.6043354 40.8233573,17.7813531 40.7866037,28.0611311 C41.8989649,27.7378488 42.9108161,27.2923042 43.7876538,26.8167567 C44.4462196,24.1419892 45.1985449,22.4093159 45.1985449,22.4093159 L47.7135464,23.3626613 C47.6565407,25.0060756 46.9867237,26.6832433 45.5375788,28.0491299 C45.5293279,30.1868437 45.5983348,33.5426793 45.9591209,37.179793 L42.829808,37.5765827 C42.5492799,34.7480498 42.8035554,31.9877738 43.1853435,29.6205371 C42.4690219,29.9393189 41.6656916,30.2686019 40.7663516,30.5191269 C40.2570507,50.6788929 33.0668317,56.2744524 26.3746625,57.1242874 C19.2909841,58.0236274 15.9178968,54.1779928 15.5083558,50.0465797 C15.1205671,46.1409391 17.34979,41.9930243 21.5607111,41.4132163 L22.0962646,45.4823732 C20.1843234,45.7246475 19.1627213,47.8548605 19.3772427,50.0105761 C19.6352685,52.6148365 21.7024752,55.2618512 26.2651515,54.6827933 C30.8278578,54.1044854 35.8016052,50.5626313 36.3649115,31.3959646 C33.5363786,32.1640414 31.3971647,33.6626913 31.6731923,36.4469697 C31.7354485,37.0755326 31.9327183,37.7325983 32.2252475,38.4676718 L29.0134263,40.2408491 Z M58.1958446,31.4484698 C58.4133663,31.4214671 59.2744524,31.6757426 59.2969547,31.900015 C59.3014551,31.9457696 59.3014551,31.9457696 59.3014551,31.9457696 C57.44952,39.4547705 55.7851035,43.0761326 52.959571,43.4346685 C50.3523102,43.7654515 49.0464296,41.2489499 48.5836334,36.5789829 C48.2581008,33.3011551 48.3526103,28.9244674 48.7141464,23.6956946 C49.5527303,12.1775428 51.7872037,6.75675068 54.3074557,6.43646865 C56.5674317,6.14918992 57.4060156,7.95237024 57.6332883,10.2423492 C57.8958146,12.8908641 57.3430093,16.189694 57.0459796,17.6358386 C55.8473597,23.7444494 53.3721122,28.5141764 51.8524602,30.9346685 C51.8262076,32.8923642 51.869712,34.660291 52.0122262,36.0974347 C52.3107561,39.1059856 53.0563306,39.9655716 54.0554305,39.8388089 C55.4460696,39.6632913 56.8209571,36.6689919 58.1958446,31.4484698 Z M55.170042,9.3730123 C53.9969247,9.52152715 52.3947645,19.5455296 51.9627213,28.0566307 C53.729898,23.6956946 56.2028953,15.7891539 55.7025953,10.3053555 C55.640339,9.67679268 55.3883138,9.34525953 55.170042,9.3730123 Z M73.7283978,30.1133363 C72.9963246,32.9343684 71.2276478,35.0683318 69.2174467,36.0966847 C68.0645815,39.5620312 66.040129,41.7740024 63.2588509,42.1272877 C60.260051,42.5083258 58.6361386,39.4405191 58.2310981,35.3548605 C57.9813231,32.8406091 58.1793429,29.9513201 58.7854035,27.1917942 L60.389814,27.3965647 C60.5248275,23.8794629 62.0519802,20.6383888 65.1377888,20.2475998 C68.04958,19.8778128 69.9135164,23.1413891 70.3140564,27.1827933 C70.5323282,29.3835134 70.2375488,31.7387489 69.8685119,33.7864536 C70.9448695,33.1046355 71.8764626,31.84976 72.44952,29.640039 C72.7105461,29.6062856 73.7021452,29.8448095 73.7283978,30.1133363 Z M65.2668017,36.6434893 C63.3706121,36.1574407 62.0189769,34.509526 61.1968947,32.4318182 C61.1773927,33.1166367 61.199895,33.7954545 61.2584008,34.379763 C61.5209271,37.0282778 62.3992649,38.7812031 63.4853735,38.6431893 C63.6158866,38.6274377 63.7028953,38.6161866 63.8289079,38.5546805 C64.3757126,38.3026553 64.8347585,37.6073357 65.2668017,36.6434893 Z M62.8118062,29.6355386 C63.0518302,32.059781 63.9789229,34.3070057 65.9921242,34.6422892 C66.7121962,32.1415392 67.0527303,28.9154665 66.8164566,26.5354785 C66.6161866,24.5155266 65.9868737,23.04988 64.769502,23.2043954 C64.6824932,23.2156466 64.5564806,23.2771527 64.470222,23.2876538 C63.2370987,23.7166967 62.5275278,26.7612511 62.8118062,29.6355386 Z M79.2376988,36.4177168 C80.1940444,36.2962046 81.4789229,33.7234473 82.8785629,28.3169067 C83.0960846,28.289904 84.1266877,28.4766727 84.1536904,28.7459496 L84.1581908,28.7917042 C82.7533003,34.1524902 81.7489499,39.5545305 78.1853435,40.0060756 C76.1428893,40.2656016 75.2270477,39.0182268 75.0267777,36.9975248 C74.7372487,34.0782328 76.420417,30.6376388 76.1931443,28.3476598 C76.059631,27.0005251 75.5660816,26.0179268 74.9945245,25.1350885 L73.7283978,30.1155866 C73.7283978,30.1155866 72.4892739,30.0450795 72.4540204,29.6865437 L72.44952,29.6415392 C73.0180768,27.3868137 73.360111,25.069832 73.5813831,22.860111 C73.0488299,21.9270177 72.5807831,20.7591509 72.4247675,19.1877438 C72.2822532,17.7513501 72.4082658,15.9166667 72.8725623,13.4931743 L76.229898,14.0677318 C76.34991,17.0530303 76.2156466,19.2522502 75.7521002,21.6757426 C77.3377588,23.0206271 79.3839634,24.5792829 79.6382388,27.1385389 C79.9232673,30.0120762 78.2941044,33.9927243 78.4493699,35.5633813 C78.5161266,36.2361986 78.8034053,36.4724722 79.2376988,36.4177168 Z M87.64979,17.8466097 C86.8232073,25.0443294 86.079883,30.4126163 86.4451695,34.0939844 C86.5741824,35.3961146 87.0744824,35.559631 87.4652715,35.510126 C88.5948845,35.3676118 89.780003,32.670342 91.180393,27.2645515 C91.3979148,27.2367987 92.4285179,27.4243174 92.4547705,27.6935944 L92.4592709,27.7385989 C91.0543804,33.0993849 90.05003,38.5021752 86.4864236,38.9537204 C84.1394389,39.2515002 83.1350885,37.1055356 82.8275578,34.0077258 C82.3332583,29.0234773 83.5378788,21.6419892 83.9556706,18.3154065 L87.64979,17.8466097 Z M83.9916742,13.3544104 C83.8319082,11.7387489 84.770252,9.6640414 86.6821932,9.42176718 C88.1163366,9.23949895 88.8319082,10.240099 88.9564206,11.4972247 C89.1169367,13.1136364 88.1740924,15.1425893 86.2614011,15.3856136 C84.8707621,15.5626313 84.1124362,14.5672817 83.9916742,13.3544104 Z M101.385914,1.05468047 L104.819007,0.618886889 C105.023777,4.4570207 104.371962,13.859961 103.242349,21.55048 C102.892814,26.459721 102.826058,29.3325083 102.973072,30.8146565 C103.066832,31.7575008 103.232598,32.100285 103.536379,32.0612811 C104.536229,31.9345185 105.585584,29.2094959 106.607186,25.3061056 C106.868212,25.2731023 107.859811,25.5108761 107.886814,25.7809031 C105.94862,33.3011551 103.782403,36.7590009 101.783453,37.0125263 C100.392814,37.1887939 99.4814731,35.9864236 99.1739424,32.8886139 C99.160441,32.7536004 99.1424392,32.5735824 99.1251875,32.3943144 C98.3968647,35.260351 97.1119862,37.8331083 94.6352385,38.1473897 C92.5057756,38.4174167 91.3919142,36.0591809 91.0716322,32.8256076 C90.4438194,26.4949745 92.8208071,16.7364986 96.9492199,16.2129463 C98.5573807,16.0089259 99.5677318,16.8805131 100.072532,18.8622112 L101.385914,1.05468047 Z M94.6764926,31.9135164 C94.8145065,33.3049055 95.1685419,34.2147465 95.7768527,34.1374887 C97.7758026,33.8839634 99.5272277,26.25045 99.1131863,22.0755326 C98.9481698,20.4141164 98.4411191,19.2965047 97.4855236,19.4172667 C95.6170867,19.6542904 94.2759526,27.8721122 94.6764926,31.9135164 Z M110.018527,36.1956946 C107.889064,36.4657216 106.779703,34.1517402 106.45492,30.8739124 C105.827108,24.5432793 108.2476,14.7788029 112.376013,14.2552505 C113.984173,14.0512301 114.994524,14.9235674 115.499325,16.9045155 L115.728098,14.329508 L118.813156,13.9379688 C118.012826,20.95042 117.187744,26.829508 117.667792,31.6779928 C118.424617,39.3115062 123.218347,42.3845635 128.693894,41.689994 C135.777603,40.7914041 140.25105,33.540429 139.440969,25.3676118 C138.764401,18.5426793 134.739499,15.2348485 127.711296,15.3541104 L127.664041,11.7687519 C136.94772,11.3172067 141.604185,17.0012751 142.374512,24.7683018 C143.180093,32.8953645 138.435119,42.7265977 128.786904,43.9514701 C120.008026,45.0653315 115.506076,40.0450795 114.611236,31.020177 C114.593984,30.8409091 114.575983,30.6608911 114.55348,30.4366187 C113.824407,33.3026553 112.538779,35.8754125 110.018527,36.1956946 Z M110.060531,29.9610711 C110.198545,31.3532103 110.55258,32.2630513 111.204395,32.1805431 C113.203345,31.9262676 114.95477,24.2935044 114.540729,20.1178368 C114.375713,18.4564206 113.868662,17.3388089 112.913066,17.460321 C111.088134,17.6920942 109.655491,25.8754125 110.060531,29.9610711 Z" id="path-1"></path>
        <path d="M22.1839934,44.4427693 C22.1839934,50.8236799 21.0153765,55.8326808 18.6788929,59.4705446 C16.3416592,63.1084083 12.9783228,65.174865 8.58963396,65.6699145 L0.0815331533,66.6277603 L0.0815331533,27.9778728 L9.37421242,26.9307681 C13.4148665,26.4762226 16.559931,27.7828533 18.8094059,30.8514101 C21.0588809,33.919967 22.1839934,38.45042 22.1839934,44.4427693 Z M15.5533303,45.4013651 C15.5533303,36.7657516 13.4141164,32.6890939 9.13568857,33.1706421 L6.54492949,33.4624212 L6.54492949,59.6070582 L8.63688869,59.3715347 C10.9973747,59.1060081 12.7405491,57.8128788 13.8656616,55.4913966 C14.9907741,53.1706646 15.5533303,49.8073282 15.5533303,45.4013651 Z M33.7111461,47.7963771 L33.7111461,62.8391314 L27.2469997,63.5674542 L27.2469997,24.9175668 L35.7078458,23.9642214 C39.2887039,23.5606811 41.930468,24.2064956 43.6338884,25.900165 C45.3365587,27.5945845 46.1886439,30.380363 46.1886439,34.2575008 C46.1886439,39.139739 44.7072457,42.7160966 41.7444494,44.9888239 L48.4231173,61.1822157 L41.5066757,61.9615437 L36.0168767,47.5376013 L33.7111461,47.7963771 Z M33.7111461,41.610486 L35.3748125,41.4229673 C36.8959646,41.2512001 37.989574,40.6488899 38.6548905,39.6130363 C39.320207,38.5771827 39.6532403,37.1077858 39.6532403,35.2040954 C39.6532403,33.2306481 39.3007051,31.8647615 38.5956346,31.1071857 C37.8905641,30.3488599 36.8014551,30.0540804 35.3275578,30.2190969 L33.7111461,30.4013651 L33.7111461,41.610486 Z M72.9490699,19.7683018 L72.9490699,44.7773027 C72.9490699,49.3775353 72.0137264,52.9943969 70.1445395,55.6279103 C68.2746025,58.2629238 65.5735824,59.7788254 62.039979,60.1763651 C58.5858836,60.5656541 55.9561206,59.6595635 54.1491899,57.4558431 C52.3430093,55.2536229 51.439919,51.8002775 51.439919,47.095057 L51.439919,22.1917942 L57.8568107,21.4687219 L57.8568107,46.9007876 C57.8568107,51.8182793 59.3224572,54.1112586 62.2537504,53.7812256 C63.6158866,53.6274602 64.669742,52.8833858 65.4145665,51.5482523 C66.1593909,50.2123687 66.5314281,48.3904365 66.5314281,46.0817057 L66.5314281,20.4913741 L72.9490699,19.7683018 Z M97.880063,28.8562106 C97.880063,32.9636214 96.9492199,36.2174467 95.0867837,38.6221872 C93.2243474,41.0269277 90.5360786,42.4258176 87.0182268,42.8226073 L85.4018152,43.0048755 L85.4018152,57.0162991 L78.9376688,57.744622 L78.9376688,19.0947345 L87.7548005,18.1016352 C94.5054755,17.340309 97.880063,20.9256676 97.880063,28.8562106 Z M85.4025653,36.7650015 L86.6386889,36.6254875 C88.2228473,36.4469697 89.4034653,35.829658 90.179793,34.7720522 C90.9553705,33.7166967 91.3439094,32.0860336 91.3439094,29.8823132 C91.3439094,27.8563606 90.9876238,26.3937144 90.2743024,25.4951245 C89.5609811,24.5965347 88.459871,24.2319982 86.9709721,24.4007651 L85.4025653,24.5770327 L85.4025653,36.7650015 Z M117.775053,53.3686844 L115.778353,43.8389589 L106.723447,44.8590609 L104.726748,54.8388314 L98.2626013,55.5671542 L106.865962,15.789904 L115.635839,14.8020552 L124.262451,52.6381113 L117.775053,53.3686844 Z M114.566232,37.6043354 L112.712046,28.8254575 C112.601035,28.2914041 112.35201,26.9487699 111.962721,24.7990549 C111.574932,22.6478398 111.340909,21.2069457 111.261401,20.4763726 C111.055881,22.0147765 110.794104,23.7136964 110.477573,25.5738824 C110.160291,27.4333183 109.336709,31.689994 108.006076,38.3431593 L114.566232,37.6043354 Z M127.329508,52.2923267 L127.329508,13.6424392 L133.794404,12.9141164 L133.794404,45.2723522 L142.75405,44.2627513 L142.75405,50.555153 L127.329508,52.2923267 Z M158.415617,15.8769127 C156.561431,16.0854335 155.100285,17.4573207 154.030678,19.9925743 C152.960321,22.5278278 152.426268,25.9459196 152.426268,30.2453495 C152.426268,39.1989949 154.525728,43.4391689 158.723897,42.9658716 C160.561581,42.7588509 162.487774,41.889514 164.499475,40.3586109 L164.499475,46.7560231 C162.803555,48.1984173 160.633588,49.0685044 157.987324,49.3662841 C154.072682,49.8073282 151.066382,48.4136889 148.968422,45.1875938 C146.868212,41.9607711 145.819607,37.2112961 145.819607,30.9369187 C145.819607,24.6625413 146.899715,19.64979 149.063681,15.8986649 C151.226148,12.1482898 154.232448,10.0555806 158.082583,9.62128713 C159.34946,9.47952295 160.566082,9.53652865 161.730198,9.79230423 C162.895065,10.04958 164.143189,10.5873837 165.473072,11.4064656 L163.334608,17.489574 C162.621287,17.0237774 161.859961,16.6112361 161.05213,16.2534503 C160.244299,15.8956646 159.366712,15.769652 158.415617,15.8769127 Z M185.866112,45.6976448 L183.869412,36.1679418 L174.814506,37.1880438 L172.818557,47.1678143 L166.35366,47.8968872 L174.957771,8.11888689 L183.726898,7.1310381 L192.35426,44.9678218 L185.866112,45.6976448 Z M182.658041,29.9333183 L180.803855,21.1536904 C180.692844,20.619637 180.443819,19.2770027 180.05453,17.1272877 C179.665992,14.9768227 179.432718,13.5359286 179.35321,12.8046055 C179.14769,14.3437594 178.885914,16.0426793 178.569382,17.9028653 C178.2521,19.7623012 177.428518,24.0182268 176.097135,30.6721422 L182.658041,29.9333183 Z M207.826058,43.2238974 L201.218647,11.0546805 L200.957621,11.0839334 C201.257651,13.5884338 201.409166,15.8979148 201.409166,18.0123762 L201.409166,43.9462196 L195.419817,44.6205371 L195.419817,5.97067207 L205.35456,4.85156016 L211.295905,34.5575308 L211.486424,34.5365287 L217.380513,3.49692469 L227.457771,2.36131113 L227.457771,41.0111761 L221.325908,41.7019952 L221.325908,15.5033753 C221.325908,13.3356586 221.436169,11.1026853 221.658191,8.80370537 L221.467672,8.82470747 L214.884263,42.4265677 L207.826058,43.2238974 Z M252.530528,11.4334683 C252.530528,15.5408791 251.599685,18.7954545 249.737249,21.200195 C247.875563,23.6034353 245.187294,25.0038254 241.668692,25.4006151 L240.05303,25.5821332 L240.05303,39.5935344 L233.588884,40.3226073 L233.588884,1.67274227 L242.406766,0.679642964 C249.155941,-0.0831833183 252.530528,3.50292529 252.530528,11.4334683 Z M240.05303,19.3422592 L241.288404,19.2027453 C242.872562,19.0249775 244.05318,18.4069157 244.830258,17.35006 C245.605836,16.2939544 245.995125,14.6640414 245.995125,12.460321 C245.995125,10.4343684 245.638089,8.9709721 244.925518,8.07313231 C244.212196,7.17529253 243.111086,6.810006 241.621437,6.9780228 L240.05303,7.15429043 L240.05303,19.3422592 Z" id="path-3"></path>
        <path d="M29.0134263,40.2408491 C28.4418692,39.3580108 28.1305881,38.4436694 28.0330783,37.4550705 C27.6677918,33.7737024 30.719847,29.9310681 36.4159166,28.7984548 C36.5126763,20.0113261 37.4607711,14.4810231 38.6953945,10.960171 L37.7390489,11.0809331 C31.3506601,11.8925143 24.5610111,9.98057306 15.5653615,11.1229373 C7.22152715,12.1820432 3.68717372,19.5867837 4.3059856,25.8274077 C4.8220372,31.0359286 8.21087609,35.470372 14.1642214,34.7150465 C20.1610711,33.9537204 21.8457396,29.1937444 21.3379388,24.0744824 C21.2576808,23.2666517 21.1346685,22.4640714 20.9629013,21.6209871 L24.8025353,20.4066157 C24.9788029,21.2939544 25.1543204,22.1805431 25.2435794,23.0783828 C25.8938944,29.6332883 23.4261476,35.8116562 14.429748,36.9532703 C5.65162016,38.0678818 0.734878488,32.4175668 0.0755625563,25.7726523 C-0.681263126,18.139889 4.23547855,9.15024002 15.3605911,7.73784878 C24.7477798,6.5459796 32.5830333,9.23424842 38.0150765,8.54492949 C38.7539004,8.45117012 39.3577108,8.32890789 39.9180168,8.21264626 C41.229898,5.90916592 42.6017852,5.09908491 43.5356286,4.75255026 L45.2570507,6.58048305 C44.6427393,7.93136814 43.7411491,9.0459796 42.1524902,9.88381338 C41.4976748,12.6043354 40.8233573,17.7813531 40.7866037,28.0611311 C41.8989649,27.7378488 42.9108161,27.2923042 43.7876538,26.8167567 C44.4462196,24.1419892 45.1985449,22.4093159 45.1985449,22.4093159 L47.7135464,23.3626613 C47.6565407,25.0060756 46.9867237,26.6832433 45.5375788,28.0491299 C45.5293279,30.1868437 45.5983348,33.5426793 45.9591209,37.179793 L42.829808,37.5765827 C42.5492799,34.7480498 42.8035554,31.9877738 43.1853435,29.6205371 C42.4690219,29.9393189 41.6656916,30.2686019 40.7663516,30.5191269 C40.2570507,50.6788929 33.0668317,56.2744524 26.3746625,57.1242874 C19.2909841,58.0236274 15.9178968,54.1779928 15.5083558,50.0465797 C15.1205671,46.1409391 17.34979,41.9930243 21.5607111,41.4132163 L22.0962646,45.4823732 C20.1843234,45.7246475 19.1627213,47.8548605 19.3772427,50.0105761 C19.6352685,52.6148365 21.7024752,55.2618512 26.2651515,54.6827933 C30.8278578,54.1044854 35.8016052,50.5626313 36.3649115,31.3959646 C33.5363786,32.1640414 31.3971647,33.6626913 31.6731923,36.4469697 C31.7354485,37.0755326 31.9327183,37.7325983 32.2252475,38.4676718 L29.0134263,40.2408491 Z M58.1958446,31.4484698 C58.4133663,31.4214671 59.2744524,31.6757426 59.2969547,31.900015 C59.3014551,31.9457696 59.3014551,31.9457696 59.3014551,31.9457696 C57.44952,39.4547705 55.7851035,43.0761326 52.959571,43.4346685 C50.3523102,43.7654515 49.0464296,41.2489499 48.5836334,36.5789829 C48.2581008,33.3011551 48.3526103,28.9244674 48.7141464,23.6956946 C49.5527303,12.1775428 51.7872037,6.75675068 54.3074557,6.43646865 C56.5674317,6.14918992 57.4060156,7.95237024 57.6332883,10.2423492 C57.8958146,12.8908641 57.3430093,16.189694 57.0459796,17.6358386 C55.8473597,23.7444494 53.3721122,28.5141764 51.8524602,30.9346685 C51.8262076,32.8923642 51.869712,34.660291 52.0122262,36.0974347 C52.3107561,39.1059856 53.0563306,39.9655716 54.0554305,39.8388089 C55.4460696,39.6632913 56.8209571,36.6689919 58.1958446,31.4484698 Z M55.170042,9.3730123 C53.9969247,9.52152715 52.3947645,19.5455296 51.9627213,28.0566307 C53.729898,23.6956946 56.2028953,15.7891539 55.7025953,10.3053555 C55.640339,9.67679268 55.3883138,9.34525953 55.170042,9.3730123 Z M73.7283978,30.1133363 C72.9963246,32.9343684 71.2276478,35.0683318 69.2174467,36.0966847 C68.0645815,39.5620312 66.040129,41.7740024 63.2588509,42.1272877 C60.260051,42.5083258 58.6361386,39.4405191 58.2310981,35.3548605 C57.9813231,32.8406091 58.1793429,29.9513201 58.7854035,27.1917942 L60.389814,27.3965647 C60.5248275,23.8794629 62.0519802,20.6383888 65.1377888,20.2475998 C68.04958,19.8778128 69.9135164,23.1413891 70.3140564,27.1827933 C70.5323282,29.3835134 70.2375488,31.7387489 69.8685119,33.7864536 C70.9448695,33.1046355 71.8764626,31.84976 72.44952,29.640039 C72.7105461,29.6062856 73.7021452,29.8448095 73.7283978,30.1133363 Z M65.2668017,36.6434893 C63.3706121,36.1574407 62.0189769,34.509526 61.1968947,32.4318182 C61.1773927,33.1166367 61.199895,33.7954545 61.2584008,34.379763 C61.5209271,37.0282778 62.3992649,38.7812031 63.4853735,38.6431893 C63.6158866,38.6274377 63.7028953,38.6161866 63.8289079,38.5546805 C64.3757126,38.3026553 64.8347585,37.6073357 65.2668017,36.6434893 Z M62.8118062,29.6355386 C63.0518302,32.059781 63.9789229,34.3070057 65.9921242,34.6422892 C66.7121962,32.1415392 67.0527303,28.9154665 66.8164566,26.5354785 C66.6161866,24.5155266 65.9868737,23.04988 64.769502,23.2043954 C64.6824932,23.2156466 64.5564806,23.2771527 64.470222,23.2876538 C63.2370987,23.7166967 62.5275278,26.7612511 62.8118062,29.6355386 Z M79.2376988,36.4177168 C80.1940444,36.2962046 81.4789229,33.7234473 82.8785629,28.3169067 C83.0960846,28.289904 84.1266877,28.4766727 84.1536904,28.7459496 L84.1581908,28.7917042 C82.7533003,34.1524902 81.7489499,39.5545305 78.1853435,40.0060756 C76.1428893,40.2656016 75.2270477,39.0182268 75.0267777,36.9975248 C74.7372487,34.0782328 76.420417,30.6376388 76.1931443,28.3476598 C76.059631,27.0005251 75.5660816,26.0179268 74.9945245,25.1350885 L73.7283978,30.1155866 C73.7283978,30.1155866 72.4892739,30.0450795 72.4540204,29.6865437 L72.44952,29.6415392 C73.0180768,27.3868137 73.360111,25.069832 73.5813831,22.860111 C73.0488299,21.9270177 72.5807831,20.7591509 72.4247675,19.1877438 C72.2822532,17.7513501 72.4082658,15.9166667 72.8725623,13.4931743 L76.229898,14.0677318 C76.34991,17.0530303 76.2156466,19.2522502 75.7521002,21.6757426 C77.3377588,23.0206271 79.3839634,24.5792829 79.6382388,27.1385389 C79.9232673,30.0120762 78.2941044,33.9927243 78.4493699,35.5633813 C78.5161266,36.2361986 78.8034053,36.4724722 79.2376988,36.4177168 Z M87.64979,17.8466097 C86.8232073,25.0443294 86.079883,30.4126163 86.4451695,34.0939844 C86.5741824,35.3961146 87.0744824,35.559631 87.4652715,35.510126 C88.5948845,35.3676118 89.780003,32.670342 91.180393,27.2645515 C91.3979148,27.2367987 92.4285179,27.4243174 92.4547705,27.6935944 L92.4592709,27.7385989 C91.0543804,33.0993849 90.05003,38.5021752 86.4864236,38.9537204 C84.1394389,39.2515002 83.1350885,37.1055356 82.8275578,34.0077258 C82.3332583,29.0234773 83.5378788,21.6419892 83.9556706,18.3154065 L87.64979,17.8466097 Z M83.9916742,13.3544104 C83.8319082,11.7387489 84.770252,9.6640414 86.6821932,9.42176718 C88.1163366,9.23949895 88.8319082,10.240099 88.9564206,11.4972247 C89.1169367,13.1136364 88.1740924,15.1425893 86.2614011,15.3856136 C84.8707621,15.5626313 84.1124362,14.5672817 83.9916742,13.3544104 Z M101.385914,1.05468047 L104.819007,0.618886889 C105.023777,4.4570207 104.371962,13.859961 103.242349,21.55048 C102.892814,26.459721 102.826058,29.3325083 102.973072,30.8146565 C103.066832,31.7575008 103.232598,32.100285 103.536379,32.0612811 C104.536229,31.9345185 105.585584,29.2094959 106.607186,25.3061056 C106.868212,25.2731023 107.859811,25.5108761 107.886814,25.7809031 C105.94862,33.3011551 103.782403,36.7590009 101.783453,37.0125263 C100.392814,37.1887939 99.4814731,35.9864236 99.1739424,32.8886139 C99.160441,32.7536004 99.1424392,32.5735824 99.1251875,32.3943144 C98.3968647,35.260351 97.1119862,37.8331083 94.6352385,38.1473897 C92.5057756,38.4174167 91.3919142,36.0591809 91.0716322,32.8256076 C90.4438194,26.4949745 92.8208071,16.7364986 96.9492199,16.2129463 C98.5573807,16.0089259 99.5677318,16.8805131 100.072532,18.8622112 L101.385914,1.05468047 Z M94.6764926,31.9135164 C94.8145065,33.3049055 95.1685419,34.2147465 95.7768527,34.1374887 C97.7758026,33.8839634 99.5272277,26.25045 99.1131863,22.0755326 C98.9481698,20.4141164 98.4411191,19.2965047 97.4855236,19.4172667 C95.6170867,19.6542904 94.2759526,27.8721122 94.6764926,31.9135164 Z M110.018527,36.1956946 C107.889064,36.4657216 106.779703,34.1517402 106.45492,30.8739124 C105.827108,24.5432793 108.2476,14.7788029 112.376013,14.2552505 C113.984173,14.0512301 114.994524,14.9235674 115.499325,16.9045155 L115.728098,14.329508 L118.813156,13.9379688 C118.012826,20.95042 117.187744,26.829508 117.667792,31.6779928 C118.424617,39.3115062 123.218347,42.3845635 128.693894,41.689994 C135.777603,40.7914041 140.25105,33.540429 139.440969,25.3676118 C138.764401,18.5426793 134.739499,15.2348485 127.711296,15.3541104 L127.664041,11.7687519 C136.94772,11.3172067 141.604185,17.0012751 142.374512,24.7683018 C143.180093,32.8953645 138.435119,42.7265977 128.786904,43.9514701 C120.008026,45.0653315 115.506076,40.0450795 114.611236,31.020177 C114.593984,30.8409091 114.575983,30.6608911 114.55348,30.4366187 C113.824407,33.3026553 112.538779,35.8754125 110.018527,36.1956946 Z M110.060531,29.9610711 C110.198545,31.3532103 110.55258,32.2630513 111.204395,32.1805431 C113.203345,31.9262676 114.95477,24.2935044 114.540729,20.1178368 C114.375713,18.4564206 113.868662,17.3388089 112.913066,17.460321 C111.088134,17.6920942 109.655491,25.8754125 110.060531,29.9610711 Z" id="path-5"></path>
        <path d="M22.1839934,44.4427693 C22.1839934,50.8236799 21.0153765,55.8326808 18.6788929,59.4705446 C16.3416592,63.1084083 12.9783228,65.174865 8.58963396,65.6699145 L0.0815331533,66.6277603 L0.0815331533,27.9778728 L9.37421242,26.9307681 C13.4148665,26.4762226 16.559931,27.7828533 18.8094059,30.8514101 C21.0588809,33.919967 22.1839934,38.45042 22.1839934,44.4427693 Z M15.5533303,45.4013651 C15.5533303,36.7657516 13.4141164,32.6890939 9.13568857,33.1706421 L6.54492949,33.4624212 L6.54492949,59.6070582 L8.63688869,59.3715347 C10.9973747,59.1060081 12.7405491,57.8128788 13.8656616,55.4913966 C14.9907741,53.1706646 15.5533303,49.8073282 15.5533303,45.4013651 Z M33.7111461,47.7963771 L33.7111461,62.8391314 L27.2469997,63.5674542 L27.2469997,24.9175668 L35.7078458,23.9642214 C39.2887039,23.5606811 41.930468,24.2064956 43.6338884,25.900165 C45.3365587,27.5945845 46.1886439,30.380363 46.1886439,34.2575008 C46.1886439,39.139739 44.7072457,42.7160966 41.7444494,44.9888239 L48.4231173,61.1822157 L41.5066757,61.9615437 L36.0168767,47.5376013 L33.7111461,47.7963771 Z M33.7111461,41.610486 L35.3748125,41.4229673 C36.8959646,41.2512001 37.989574,40.6488899 38.6548905,39.6130363 C39.320207,38.5771827 39.6532403,37.1077858 39.6532403,35.2040954 C39.6532403,33.2306481 39.3007051,31.8647615 38.5956346,31.1071857 C37.8905641,30.3488599 36.8014551,30.0540804 35.3275578,30.2190969 L33.7111461,30.4013651 L33.7111461,41.610486 Z M72.9490699,19.7683018 L72.9490699,44.7773027 C72.9490699,49.3775353 72.0137264,52.9943969 70.1445395,55.6279103 C68.2746025,58.2629238 65.5735824,59.7788254 62.039979,60.1763651 C58.5858836,60.5656541 55.9561206,59.6595635 54.1491899,57.4558431 C52.3430093,55.2536229 51.439919,51.8002775 51.439919,47.095057 L51.439919,22.1917942 L57.8568107,21.4687219 L57.8568107,46.9007876 C57.8568107,51.8182793 59.3224572,54.1112586 62.2537504,53.7812256 C63.6158866,53.6274602 64.669742,52.8833858 65.4145665,51.5482523 C66.1593909,50.2123687 66.5314281,48.3904365 66.5314281,46.0817057 L66.5314281,20.4913741 L72.9490699,19.7683018 Z M97.880063,28.8562106 C97.880063,32.9636214 96.9492199,36.2174467 95.0867837,38.6221872 C93.2243474,41.0269277 90.5360786,42.4258176 87.0182268,42.8226073 L85.4018152,43.0048755 L85.4018152,57.0162991 L78.9376688,57.744622 L78.9376688,19.0947345 L87.7548005,18.1016352 C94.5054755,17.340309 97.880063,20.9256676 97.880063,28.8562106 Z M85.4025653,36.7650015 L86.6386889,36.6254875 C88.2228473,36.4469697 89.4034653,35.829658 90.179793,34.7720522 C90.9553705,33.7166967 91.3439094,32.0860336 91.3439094,29.8823132 C91.3439094,27.8563606 90.9876238,26.3937144 90.2743024,25.4951245 C89.5609811,24.5965347 88.459871,24.2319982 86.9709721,24.4007651 L85.4025653,24.5770327 L85.4025653,36.7650015 Z M117.775053,53.3686844 L115.778353,43.8389589 L106.723447,44.8590609 L104.726748,54.8388314 L98.2626013,55.5671542 L106.865962,15.789904 L115.635839,14.8020552 L124.262451,52.6381113 L117.775053,53.3686844 Z M114.566232,37.6043354 L112.712046,28.8254575 C112.601035,28.2914041 112.35201,26.9487699 111.962721,24.7990549 C111.574932,22.6478398 111.340909,21.2069457 111.261401,20.4763726 C111.055881,22.0147765 110.794104,23.7136964 110.477573,25.5738824 C110.160291,27.4333183 109.336709,31.689994 108.006076,38.3431593 L114.566232,37.6043354 Z M127.329508,52.2923267 L127.329508,13.6424392 L133.794404,12.9141164 L133.794404,45.2723522 L142.75405,44.2627513 L142.75405,50.555153 L127.329508,52.2923267 Z M158.415617,15.8769127 C156.561431,16.0854335 155.100285,17.4573207 154.030678,19.9925743 C152.960321,22.5278278 152.426268,25.9459196 152.426268,30.2453495 C152.426268,39.1989949 154.525728,43.4391689 158.723897,42.9658716 C160.561581,42.7588509 162.487774,41.889514 164.499475,40.3586109 L164.499475,46.7560231 C162.803555,48.1984173 160.633588,49.0685044 157.987324,49.3662841 C154.072682,49.8073282 151.066382,48.4136889 148.968422,45.1875938 C146.868212,41.9607711 145.819607,37.2112961 145.819607,30.9369187 C145.819607,24.6625413 146.899715,19.64979 149.063681,15.8986649 C151.226148,12.1482898 154.232448,10.0555806 158.082583,9.62128713 C159.34946,9.47952295 160.566082,9.53652865 161.730198,9.79230423 C162.895065,10.04958 164.143189,10.5873837 165.473072,11.4064656 L163.334608,17.489574 C162.621287,17.0237774 161.859961,16.6112361 161.05213,16.2534503 C160.244299,15.8956646 159.366712,15.769652 158.415617,15.8769127 Z M185.866112,45.6976448 L183.869412,36.1679418 L174.814506,37.1880438 L172.818557,47.1678143 L166.35366,47.8968872 L174.957771,8.11888689 L183.726898,7.1310381 L192.35426,44.9678218 L185.866112,45.6976448 Z M182.658041,29.9333183 L180.803855,21.1536904 C180.692844,20.619637 180.443819,19.2770027 180.05453,17.1272877 C179.665992,14.9768227 179.432718,13.5359286 179.35321,12.8046055 C179.14769,14.3437594 178.885914,16.0426793 178.569382,17.9028653 C178.2521,19.7623012 177.428518,24.0182268 176.097135,30.6721422 L182.658041,29.9333183 Z M207.826058,43.2238974 L201.218647,11.0546805 L200.957621,11.0839334 C201.257651,13.5884338 201.409166,15.8979148 201.409166,18.0123762 L201.409166,43.9462196 L195.419817,44.6205371 L195.419817,5.97067207 L205.35456,4.85156016 L211.295905,34.5575308 L211.486424,34.5365287 L217.380513,3.49692469 L227.457771,2.36131113 L227.457771,41.0111761 L221.325908,41.7019952 L221.325908,15.5033753 C221.325908,13.3356586 221.436169,11.1026853 221.658191,8.80370537 L221.467672,8.82470747 L214.884263,42.4265677 L207.826058,43.2238974 Z M252.530528,11.4334683 C252.530528,15.5408791 251.599685,18.7954545 249.737249,21.200195 C247.875563,23.6034353 245.187294,25.0038254 241.668692,25.4006151 L240.05303,25.5821332 L240.05303,39.5935344 L233.588884,40.3226073 L233.588884,1.67274227 L242.406766,0.679642964 C249.155941,-0.0831833183 252.530528,3.50292529 252.530528,11.4334683 Z M240.05303,19.3422592 L241.288404,19.2027453 C242.872562,19.0249775 244.05318,18.4069157 244.830258,17.35006 C245.605836,16.2939544 245.995125,14.6640414 245.995125,12.460321 C245.995125,10.4343684 245.638089,8.9709721 244.925518,8.07313231 C244.212196,7.17529253 243.111086,6.810006 241.621437,6.9780228 L240.05303,7.15429043 L240.05303,19.3422592 Z" id="path-7"></path>
    </defs>
    <g id="Page-1" stroke="none" stroke-width="1" fill="none" fill-rule="evenodd">
        <g id="header-logo-2020">
            <g id="Group-152" transform="translate(1.485149, 1.485149)">
                <g id="Fill-141-Clipped">
                    <mask id="mask-2" fill="white">
                        <use xlink:href="#path-1"></use>
                    </mask>
                    <g id="path-1"></g>
                    <polygon id="Fill-141" fill="#FFFFFF" fill-rule="nonzero" mask="url(#mask-2)" points="-3.75037504 -3.13148815 146.212871 -3.13148815 146.212871 61.0066007 -3.75037504 61.0066007"></polygon>
                </g>
                <g id="Fill-147-Clipped" transform="translate(44.254425, 21.002100)">
                    <mask id="mask-4" fill="white">
                        <use xlink:href="#path-3"></use>
                    </mask>
                    <g id="path-5"></g>
                    <polygon id="Fill-147" fill="#FFFFFF" fill-rule="nonzero" mask="url(#mask-4)" points="-3.66884188 -3.17109211 256.280903 -3.17109211 256.280903 70.3781353 -3.66884188 70.3781353"></polygon>
                </g>
            </g>
            <g id="Group-152">
                <g id="Fill-141-Clipped">
                    <mask id="mask-6" fill="white">
                        <use xlink:href="#path-5"></use>
                    </mask>
                    <g id="path-7"></g>
                    <polygon id="Fill-141" fill="#214A5A" fill-rule="nonzero" mask="url(#mask-6)" points="-3.75037504 -3.13148815 146.212871 -3.13148815 146.212871 61.0066007 -3.75037504 61.0066007"></polygon>
                </g>
                <g id="Fill-147-Clipped" transform="translate(44.254425, 21.002100)">
                    <mask id="mask-8" fill="white">
                        <use xlink:href="#path-7"></use>
                    </mask>
                    <g id="path-11"></g>
                    <polygon id="Fill-147" fill="#214A5A" fill-rule="nonzero" mask="url(#mask-8)" points="-3.66884188 -3.17109211 256.280903 -3.17109211 256.280903 70.3781353 -3.66884188 70.3781353"></polygon>
                </g>
            </g>
        </g>
    </g>
</svg>