<?xml version="1.0" encoding="utf-8"?>
<!-- Generator: Adobe Illustrator 15.1.0, SVG Export Plug-In . SVG Version: 6.00 Build 0)  -->
<!DOCTYPE svg PUBLIC "-//W3C//DTD SVG 1.1//EN" "http://www.w3.org/Graphics/SVG/1.1/DTD/svg11.dtd">
<svg version="1.1" id="Layer_1" xmlns="http://www.w3.org/2000/svg" xmlns:xlink="http://www.w3.org/1999/xlink" x="0px" y="0px"
	 width="16.306px" height="23.25px" viewBox="0 0 16.306 23.25" enable-background="new 0 0 16.306 23.25" xml:space="preserve">
<path fill="#2F94D1" d="M16.306,17.081c-5.521,0.357-5.811,0.646-6.169,6.169c-0.356-5.522-0.647-5.812-6.169-6.169
	c5.521-0.357,5.812-0.648,6.169-6.17C10.495,16.435,10.784,16.724,16.306,17.081"/>
<path fill="#2F94D1" d="M7.045,8.3c-3.153,0.204-3.318,0.37-3.522,3.522C3.318,8.67,3.152,8.504,0,8.3
	c3.152-0.204,3.318-0.37,3.523-3.521C3.727,7.93,3.892,8.096,7.045,8.3"/>
<path fill="#2F94D1" d="M10.258,1.083c0,0.598-0.483,1.082-1.082,1.082c-0.598,0-1.083-0.484-1.083-1.082
	C8.093,0.484,8.578,0,9.176,0C9.774,0,10.258,0.484,10.258,1.083"/>
<path fill="#CFECFB" d="M4.966,21.892c0,0.6-0.484,1.084-1.083,1.084c-0.598,0-1.082-0.484-1.082-1.084
	c0-0.598,0.484-1.082,1.082-1.082C4.482,20.81,4.966,21.294,4.966,21.892"/>
</svg>
