<?xml version="1.0" encoding="utf-8"?>
<!-- Generator: Adobe Illustrator 15.1.0, SVG Export Plug-In . SVG Version: 6.00 Build 0)  -->
<!DOCTYPE svg PUBLIC "-//W3C//DTD SVG 1.1//EN" "http://www.w3.org/Graphics/SVG/1.1/DTD/svg11.dtd">
<svg version="1.1" id="Layer_1" xmlns="http://www.w3.org/2000/svg" xmlns:xlink="http://www.w3.org/1999/xlink" x="0px" y="0px"
	 width="27.285px" height="29.973px" viewBox="0 0 27.285 29.973" enable-background="new 0 0 27.285 29.973" xml:space="preserve">
<path fill="#2F94D1" d="M20.228,22.32c-6.851,0.443-7.209,0.804-7.651,7.652c-0.443-6.849-0.805-7.209-7.652-7.652
	c6.85-0.443,7.209-0.803,7.652-7.652C13.019,21.518,13.377,21.877,20.228,22.32"/>
<path fill="#CFECFB" d="M8.738,11.428c-3.91,0.253-4.115,0.459-4.369,4.369C4.115,11.887,3.91,11.681,0,11.428
	c3.91-0.254,4.115-0.459,4.369-4.37C4.621,10.969,4.826,11.174,8.738,11.428"/>
<path fill="#2F94D1" d="M27.285,6.057c-5.42,0.351-5.705,0.636-6.059,6.056c-0.352-5.42-0.635-5.705-6.056-6.056
	C20.592,5.705,20.875,5.421,21.227,0C21.58,5.421,21.865,5.705,27.285,6.057"/>
<path fill="#2F94D1" d="M12.725,2.476c0,0.741-0.604,1.343-1.344,1.343c-0.741,0-1.344-0.602-1.344-1.343
	c0-0.742,0.603-1.343,1.344-1.343C12.121,1.133,12.725,1.734,12.725,2.476"/>
<path fill="#2F94D1" d="M6.16,28.289c0,0.741-0.603,1.343-1.345,1.343c-0.739,0-1.343-0.602-1.343-1.343
	c0-0.742,0.604-1.343,1.343-1.343C5.558,26.945,6.16,27.546,6.16,28.289"/>
<path fill="#CFECFB" d="M23.02,17.248c0,0.741-0.604,1.343-1.344,1.343s-1.344-0.602-1.344-1.343c0-0.742,0.604-1.344,1.344-1.344
	C22.416,15.903,23.02,16.505,23.02,17.248"/>
</svg>
