<?xml version="1.0" encoding="utf-8"?>
<!-- Generator: Adobe Illustrator 15.1.0, SVG Export Plug-In . SVG Version: 6.00 Build 0)  -->
<!DOCTYPE svg PUBLIC "-//W3C//DTD SVG 1.1//EN" "http://www.w3.org/Graphics/SVG/1.1/DTD/svg11.dtd">
<svg version="1.1" id="Layer_1" xmlns="http://www.w3.org/2000/svg" xmlns:xlink="http://www.w3.org/1999/xlink" x="0px" y="0px"
	 width="27.286px" height="29.972px" viewBox="0 0 27.286 29.972" enable-background="new 0 0 27.286 29.972" xml:space="preserve">
<path fill="#CFECFB" d="M20.228,22.32c-6.85,0.442-7.209,0.805-7.652,7.651c-0.444-6.849-0.804-7.209-7.653-7.651
	c6.849-0.441,7.209-0.805,7.653-7.651C13.019,21.516,13.378,21.877,20.228,22.32"/>
<path fill="#2F94D1" d="M8.739,11.428c-3.911,0.254-4.116,0.458-4.369,4.369C4.116,11.886,3.911,11.682,0,11.428
	c3.911-0.254,4.116-0.459,4.37-4.369C4.623,10.969,4.828,11.174,8.739,11.428"/>
<path fill="#2F94D1" d="M27.286,6.057c-5.421,0.352-5.705,0.636-6.056,6.057c-0.351-5.42-0.635-5.705-6.056-6.057
	C20.595,5.705,20.879,5.42,21.229,0C21.58,5.42,21.865,5.705,27.286,6.057"/>
<path fill="#2F94D1" d="M12.725,2.475c0,0.742-0.602,1.344-1.343,1.344c-0.742,0-1.344-0.602-1.344-1.344
	c0-0.74,0.602-1.343,1.344-1.343C12.123,1.132,12.725,1.734,12.725,2.475"/>
<path fill="#2F94D1" d="M6.16,28.287c0,0.742-0.602,1.344-1.343,1.344c-0.742,0-1.343-0.602-1.343-1.344
	c0-0.74,0.601-1.345,1.343-1.345C5.558,26.945,6.16,27.547,6.16,28.287"/>
<path fill="#2F94D1" d="M23.02,17.246c0,0.742-0.602,1.344-1.343,1.344c-0.742,0-1.343-0.602-1.343-1.344
	c0-0.74,0.601-1.344,1.343-1.344C22.418,15.904,23.02,16.506,23.02,17.246"/>
</svg>
